<svg width="578" height="588" viewBox="0 0 578 588" fill="none" xmlns="http://www.w3.org/2000/svg">
<g clip-path="url(#clip0)">
<path d="M50.9618 233.779C50.6743 233.592 50.4528 233.318 50.3284 232.998C50.2041 232.678 50.183 232.327 50.2683 231.993C50.3535 231.66 50.5408 231.362 50.8038 231.14C51.0668 230.919 51.3923 230.785 51.7348 230.758C155.767 222.693 262.467 243.83 360.302 291.901C458.136 339.973 540.052 411.492 597.207 498.751C597.424 499.116 597.491 499.55 597.395 499.963C597.298 500.377 597.047 500.738 596.692 500.97C596.336 501.203 595.906 501.29 595.489 501.212C595.072 501.135 594.701 500.899 594.454 500.555C479.407 324.893 261.409 217.795 51.9882 234.04C51.6265 234.069 51.2657 233.977 50.9618 233.779Z" fill="#115701"/>
<path d="M1.37518 233.671C1.07086 233.466 0.843906 233.165 0.730503 232.816C0.6171 232.467 0.623768 232.089 0.749352 231.744C0.874936 231.398 1.11227 231.105 1.4236 230.909C1.73496 230.714 2.10245 230.629 2.46762 230.666C8.48324 231.335 15.2403 230.079 23.2914 226.914C26.5238 225.618 29.7611 224.104 32.8776 222.649C36.3505 221.028 39.9445 219.348 43.6008 217.93C57.5383 212.705 72.5716 211.121 87.2798 213.327C101.988 215.534 115.885 221.458 127.658 230.54C127.911 230.739 128.1 231.009 128.201 231.315C128.303 231.622 128.311 231.951 128.227 232.263C128.143 232.575 127.968 232.855 127.726 233.069C127.484 233.283 127.185 233.421 126.865 233.466C118.811 234.601 110.803 239.063 102.988 243.334C94.3725 248.071 85.5119 252.992 76.2011 253.799C66.5587 254.65 57.0131 251.581 48.5713 248.863L25.1846 241.365L1.77216 233.863C1.6325 233.815 1.49925 233.751 1.37518 233.671ZM120.166 229.205C98.2307 214.801 69.3597 211.504 44.7818 220.994C41.2339 222.373 37.6845 224.027 34.2656 225.628C31.1046 227.109 27.829 228.639 24.5235 229.984C20.4378 231.666 16.18 232.893 11.8272 233.641L26.2028 238.242L49.6152 245.744C57.7561 248.332 66.9531 251.325 75.9351 250.536C84.5598 249.789 93.1343 245.052 101.426 240.474C108.289 236.708 115.396 232.759 122.68 230.994C121.862 230.332 121.022 229.767 120.166 229.205ZM96.2617 257.749C95.9699 257.556 95.747 257.276 95.6253 256.948C95.5036 256.621 95.4894 256.262 95.5848 255.926C95.6802 255.589 95.8801 255.291 96.1558 255.076C96.4314 254.86 96.7683 254.738 97.1178 254.726C111.258 254.361 128.881 253.87 140.336 248.267C143.023 246.883 145.599 245.293 148.042 243.512C150.727 241.562 153.564 239.834 156.528 238.344C163.696 234.931 174.148 233.371 184.561 234.114C181.992 232.376 179.624 230.359 177.5 228.099C175.305 225.618 173.316 222.962 171.554 220.156C169.947 217.6 168.145 215.173 166.165 212.895C157.624 203.454 141.446 196.484 128.453 190.888C128.098 190.739 127.806 190.47 127.63 190.128C127.453 189.785 127.402 189.392 127.485 189.015C127.569 188.638 127.781 188.303 128.087 188.067C128.392 187.831 128.77 187.709 129.155 187.723C139.223 188.131 149.627 188.552 159.9 190.431C168.053 191.91 179.466 195.007 187.646 201.247C194.821 206.731 197.831 213.339 200.731 219.738C201.56 221.661 202.402 223.482 203.403 225.353C205.473 229.414 208.335 233.018 211.82 235.954C215.306 238.889 219.345 241.095 223.698 242.443C224.064 242.563 224.376 242.808 224.58 243.134C224.784 243.461 224.867 243.849 224.814 244.231C224.761 244.613 224.576 244.965 224.292 245.225C224.007 245.485 223.64 245.637 223.255 245.654C215.587 245.816 207.957 244.571 200.741 241.982C192.945 242.301 185.486 245.264 179.588 250.385C178.001 251.755 176.509 253.188 175.017 254.621C169.943 259.478 164.687 264.505 155.938 266.908C146.027 269.678 134.264 268.31 126.157 266.654C115.912 264.586 106.096 261.132 96.6036 257.794C96.4882 257.792 96.3736 257.777 96.2617 257.749ZM141.823 251.243C132.116 256.008 118.6 257.266 106.133 257.765C112.916 260.143 119.843 262.09 126.872 263.594C137.817 265.79 147.884 265.907 155.131 263.883C163.044 261.662 167.802 257.162 172.769 252.345C174.311 250.876 175.86 249.398 177.476 248.005C184.017 242.318 192.316 239.06 200.97 238.782C201.17 238.775 201.368 238.808 201.555 238.877C205.787 240.371 210.16 241.437 214.607 242.057C208.614 238.445 203.749 233.231 200.559 227.001C199.567 225.095 198.687 223.166 197.803 221.221C194.942 214.93 192.233 208.974 185.725 203.983C179.746 199.423 170.433 195.831 159.381 193.799C152.297 192.594 145.144 191.839 137.964 191.537C149.329 196.614 161.413 202.798 168.658 210.795C170.749 213.191 172.652 215.745 174.35 218.434C176.019 221.096 177.904 223.616 179.986 225.968C183.785 229.825 188.228 232.99 193.114 235.32C193.46 235.501 193.73 235.8 193.876 236.163C194.021 236.526 194.033 236.929 193.908 237.3C193.784 237.671 193.532 237.986 193.197 238.189C192.862 238.391 192.466 238.467 192.08 238.404C180.031 236.255 166.371 237.46 158.082 241.405C155.279 242.819 152.595 244.46 150.058 246.31C147.476 248.181 144.755 249.851 141.919 251.306L141.823 251.243ZM330.591 403.087C321.426 397.069 313.072 389.942 304.872 382.959C304.606 382.73 304.42 382.422 304.341 382.08C304.263 381.737 304.296 381.379 304.435 381.056C304.575 380.734 304.813 380.464 305.117 380.287C305.42 380.109 305.772 380.034 306.121 380.071C327.474 382.429 354.067 385.36 376.191 375.541C381.666 372.957 386.962 370.01 392.045 366.719C397.44 363.205 403.086 360.093 408.936 357.407C426.2 349.98 448.395 350.616 465.253 358.625C456.901 344.097 453.735 325.653 457.088 309.878C458.572 303.611 460.509 297.46 462.884 291.474C465.11 285.842 466.956 280.067 468.411 274.189C473.686 250.563 465.918 226.133 459.042 204.619C458.94 204.287 458.945 203.931 459.058 203.601C459.17 203.272 459.384 202.986 459.669 202.786C459.953 202.585 460.294 202.48 460.641 202.485C460.989 202.49 461.326 202.605 461.604 202.814C473.108 211.871 485.001 221.238 494.354 233.005C501.768 242.339 510.524 257.133 510.105 274.643C509.79 289.794 502.609 303.455 495.705 316.693C493.652 320.638 491.525 324.715 489.628 328.736C483.584 341.587 478.01 360.178 485.82 375.867C485.976 376.184 486.026 376.544 485.962 376.892C485.898 377.24 485.723 377.558 485.464 377.799C485.205 378.041 484.876 378.193 484.524 378.232C484.173 378.272 483.818 378.197 483.513 378.019C480.641 376.271 477.963 374.221 475.526 371.906C459.711 369.434 444.104 378.005 433.76 385.688C430.192 388.335 426.615 391.225 423.159 394.015C411.506 403.377 399.527 413.088 384.776 416.416C367.698 420.27 351.47 414.592 340.863 409.157C337.316 407.308 333.871 405.272 330.543 403.055L330.591 403.087ZM311.061 383.907C320.792 392.144 330.963 400.34 342.397 406.193C356.696 413.529 371.506 416.002 384.083 413.176C398.113 409.981 409.794 400.556 421.118 391.421C424.603 388.609 428.209 385.696 431.828 383.013C442.808 374.865 459.471 365.775 476.604 368.712C476.927 368.769 477.226 368.917 477.466 369.14C478.545 370.179 479.643 371.148 480.759 372.047C475.702 356.484 480.975 339.419 486.727 327.327C488.643 323.236 490.75 319.105 492.861 315.156C499.584 302.255 506.548 288.905 506.887 274.556C507.187 261.67 501.845 247.629 491.842 235.05C483.846 224.988 473.834 216.635 463.834 208.703C470.048 228.583 476.673 252.386 471.637 274.915C470.153 280.939 468.263 286.856 465.981 292.625C463.67 298.464 461.779 304.461 460.323 310.568C456.738 327.515 461.106 347.837 471.501 362.231C471.719 362.542 471.824 362.919 471.797 363.298C471.769 363.677 471.612 364.035 471.351 364.312C471.09 364.588 470.741 364.766 470.365 364.815C469.988 364.864 469.606 364.781 469.284 364.581C452.88 354.223 428.594 352.517 410.251 360.435C404.552 363.069 399.047 366.107 393.78 369.526C388.573 372.898 383.147 375.917 377.538 378.562C356.369 387.891 331.775 386.108 311.061 383.907ZM268.87 352.521C268.585 352.33 268.366 352.054 268.246 351.733C268.125 351.411 268.108 351.06 268.197 350.727C268.286 350.395 268.477 350.099 268.743 349.881C269.008 349.662 269.335 349.532 269.678 349.509C287.626 348.376 309.888 346.961 326.063 336.476C329.992 333.789 333.726 330.828 337.236 327.613C341.002 324.172 345.019 321.017 349.255 318.176C362.214 309.949 381.181 307.431 396.719 311.54C386.86 300.187 380.634 284.035 381.145 270.115C381.454 265.013 382.153 259.941 383.235 254.944C384.217 250.287 384.882 245.57 385.225 240.824C386.122 221.643 376.028 201.697 367.967 185.595C367.804 185.273 367.752 184.907 367.817 184.552C367.883 184.197 368.064 183.874 368.331 183.631C368.598 183.388 368.937 183.24 369.296 183.209C369.656 183.178 370.015 183.266 370.319 183.459C380.809 190.099 391.703 197.004 400.816 205.911C408.084 213.014 417.202 224.447 419.304 238.538C421.158 250.784 417.347 262.206 413.651 273.262C412.564 276.533 411.432 279.912 410.488 283.235C407.457 293.804 405.6 308.977 414.039 321.025C414.244 321.323 414.345 321.681 414.326 322.042C414.307 322.404 414.17 322.749 413.936 323.025C413.701 323.301 413.382 323.493 413.029 323.569C412.675 323.646 412.306 323.604 411.979 323.45C410.358 322.659 408.79 321.763 407.286 320.768C393.603 320.813 382.432 329.484 375.46 336.789C373.043 339.338 370.703 341.938 368.44 344.588C360.778 353.343 352.84 362.413 341.34 366.994C328.07 372.301 313.598 370.215 303.819 367.543C291.475 364.166 280.057 358.268 269.014 352.574L268.87 352.521ZM373.523 189.437C381.162 204.82 389.298 223.053 388.457 240.975C388.117 245.876 387.434 250.748 386.412 255.555C385.371 260.383 384.698 265.283 384.399 270.211C383.851 285.403 391.81 303.423 403.793 314.035C404.084 314.293 404.274 314.647 404.329 315.032C404.384 315.418 404.3 315.811 404.093 316.141C403.886 316.472 403.569 316.718 403.198 316.837C402.827 316.955 402.426 316.939 402.067 316.789C386.501 310.291 365.023 312.042 351.016 320.945C346.915 323.695 343.027 326.751 339.384 330.085C335.767 333.409 331.918 336.47 327.865 339.244C312.819 349.037 292.978 351.229 275.832 352.419C285.12 357.139 294.639 361.653 304.719 364.412C317.884 368.025 330.481 367.873 340.175 364.009C350.927 359.709 358.595 350.944 366.016 342.472C368.318 339.848 370.686 337.143 373.119 334.59C380.639 326.721 392.761 317.379 407.843 317.55C408.001 317.541 408.159 317.565 408.307 317.62C402.758 305.635 404.567 292.168 407.364 282.397C408.336 279.009 409.477 275.595 410.574 272.29C414.147 261.608 417.83 250.571 416.096 239.106C414.532 228.786 408.293 217.852 398.544 208.28C391.003 200.984 382.27 195.043 373.523 189.437ZM158.62 270.034C158.309 269.835 158.075 269.536 157.956 269.186C157.838 268.835 157.841 268.455 157.966 268.107C158.091 267.758 158.33 267.463 158.644 267.267C158.959 267.072 159.33 266.99 159.697 267.033C174.858 268.551 193.731 270.452 207.644 264.879C211.001 263.453 214.245 261.777 217.35 259.865C220.718 257.787 224.246 255.983 227.9 254.467C235.745 251.429 246.011 250.781 256.011 252.467C248.683 247.089 242.696 240.36 239.478 233.628C237.851 230.024 236.511 226.295 235.473 222.478C234.515 218.966 233.298 215.531 231.831 212.2C225.489 198.634 210.416 187.11 198.288 177.891C197.995 177.665 197.787 177.346 197.698 176.986C197.609 176.626 197.644 176.246 197.797 175.908C197.951 175.57 198.214 175.294 198.544 175.123C198.873 174.953 199.251 174.9 199.614 174.971C210.121 177.059 220.976 179.223 231.329 183.264C239.528 186.456 250.738 192.231 257.602 201.606C263.578 209.776 264.853 218.775 266.12 227.41C266.487 229.994 266.86 232.569 267.352 235.112C268.94 243.172 273.069 254.155 283.921 260.454C284.244 260.632 284.496 260.916 284.635 261.258C284.773 261.6 284.79 261.979 284.683 262.333C284.569 262.69 284.336 262.997 284.023 263.203C283.71 263.409 283.335 263.501 282.963 263.464C282.225 263.393 281.474 263.3 280.726 263.181C280.822 263.555 280.786 263.95 280.625 264.3C280.464 264.636 280.194 264.908 279.86 265.072C279.525 265.235 279.145 265.28 278.782 265.2C266.49 262.436 255.989 267.59 249.302 272.367C247.198 273.894 245.165 275.523 243.132 277.152C236.289 282.626 229.221 288.297 219.259 290.179C207.84 292.332 195.7 288.896 187.536 285.63C177.249 281.509 167.84 275.675 158.735 270.027L158.62 270.034ZM267.366 255.525C267.712 255.741 267.964 256.079 268.073 256.472C268.182 256.865 268.141 257.284 267.957 257.649C267.773 258.013 267.459 258.296 267.078 258.441C266.697 258.586 266.275 258.584 265.896 258.434C253.821 254.062 239.031 253.697 229.101 257.544C225.609 258.996 222.238 260.724 219.019 262.711C215.773 264.708 212.383 266.458 208.877 267.949C196.383 272.952 180.49 272.277 166.451 270.999C173.534 275.479 180.976 279.366 188.701 282.618C199.65 287.05 210.306 288.533 218.601 286.99C227.746 285.261 234.156 280.068 241.015 274.632C243.099 272.967 245.177 271.312 247.316 269.753C253.167 265.516 261.798 261.05 272.04 261.172L271.009 260.647C270.629 260.465 270.336 260.141 270.192 259.745C270.048 259.349 270.065 258.912 270.239 258.528C270.403 258.14 270.711 257.83 271.097 257.663C271.484 257.495 271.92 257.484 272.315 257.63C273.64 258.128 274.957 258.552 276.256 258.923C268.688 251.982 265.452 242.826 264.067 235.754C263.563 233.148 263.186 230.515 262.809 227.882C261.593 219.254 260.362 211.11 254.894 203.55C249.903 196.729 241.086 190.623 230.084 186.334C222.218 183.438 214.128 181.192 205.894 179.618C217.003 188.292 229.071 198.629 234.772 210.823C236.305 214.309 237.573 217.907 238.564 221.585C239.555 225.239 240.833 228.807 242.388 232.258C246.634 241.071 256.364 250.189 267.162 255.501L267.366 255.525ZM215.844 303.805C215.543 303.613 215.313 303.326 215.191 302.99C215.068 302.654 215.059 302.287 215.165 301.945C215.271 301.603 215.486 301.305 215.777 301.097C216.068 300.888 216.419 300.781 216.777 300.792C232.46 301.095 251.979 301.49 266.682 293.582C270.282 291.546 273.732 289.255 277.006 286.726C280.535 283.999 284.267 281.546 288.169 279.388C298.448 274.005 312.688 272.671 325.064 275.6C317.674 267.991 312.388 258.329 310.69 249.053C309.989 244.653 309.624 240.206 309.599 235.749C309.562 231.612 309.243 227.483 308.644 223.39C305.8 206.95 293.476 191.827 283.568 179.668C283.337 179.392 283.205 179.046 283.193 178.686C283.18 178.326 283.288 177.971 283.498 177.678C283.706 177.385 284.003 177.167 284.345 177.059C284.688 176.95 285.056 176.956 285.394 177.076C295.608 180.805 306.167 184.636 315.679 190.565C323.229 195.289 333.195 203.336 337.702 215.022C341.602 225.138 340.501 235.596 339.431 245.715C339.108 248.743 338.794 251.777 338.59 254.814C338.001 264.325 339.285 277.48 348.674 286.155C348.939 286.401 349.115 286.728 349.176 287.086C349.236 287.443 349.176 287.811 349.007 288.131C348.837 288.452 348.566 288.707 348.237 288.859C347.908 289.01 347.538 289.048 347.185 288.968C344.714 288.366 342.309 287.521 340.005 286.445C327.659 284.832 316.844 291.765 309.913 297.898L308.836 296.667L309.913 297.898C307.665 299.896 305.475 302.015 303.286 304.134C295.974 311.203 288.357 318.485 278.007 321.67C265.994 325.294 253.526 322.442 245.11 319.37C234.599 315.528 225.058 309.58 215.832 303.825L215.844 303.805ZM289.828 182.207C299.107 193.815 309.201 207.598 311.805 222.832C312.438 227.075 312.772 231.357 312.803 235.648C312.828 239.94 313.175 244.224 313.844 248.463C315.82 259.245 323.076 270.642 332.774 278.195C333.087 278.441 333.301 278.791 333.376 279.182C333.45 279.574 333.381 279.979 333.18 280.323C332.976 280.664 332.657 280.92 332.281 281.047C331.905 281.174 331.496 281.163 331.128 281.016C318.329 275.713 301.242 276.226 289.659 282.337C285.909 284.425 282.32 286.792 278.925 289.42C275.524 292.034 271.944 294.405 268.21 296.515C254.614 303.828 237.515 304.401 222.663 304.216C230.181 308.822 237.95 313.275 246.257 316.303C257.43 320.373 268.35 321.161 276.992 318.563C286.622 315.636 293.892 308.609 300.925 301.798C303.149 299.647 305.374 297.495 307.666 295.472C315.16 288.839 326.948 281.346 340.627 283.256C340.786 283.278 340.942 283.324 341.088 283.393L342.205 283.892C335.636 274.781 334.703 263.29 335.249 254.661C335.441 251.602 335.764 248.533 336.093 245.454C337.118 235.718 338.176 225.66 334.591 216.302C331.333 207.848 323.969 199.676 313.838 193.41C306.364 188.654 298.068 185.274 289.819 182.201L289.828 182.207Z" fill="#115701"/>
</g>
<defs>
<clipPath id="clip0">
<rect width="646.175" height="278.466" fill="white" transform="translate(152.847) rotate(33.2909)"/>
</clipPath>
</defs>
</svg>
