<svg width="578" height="588" viewBox="0 0 578 588" fill="none" xmlns="http://www.w3.org/2000/svg">
<g clip-path="url(#clip0)">
<path d="M527.02 233.779C527.308 233.592 527.529 233.318 527.653 232.998C527.778 232.678 527.799 232.327 527.714 231.993C527.628 231.66 527.441 231.362 527.178 231.14C526.915 230.919 526.59 230.785 526.247 230.758C422.215 222.693 315.515 243.83 217.68 291.901C119.845 339.973 37.9302 411.492 -19.2256 498.751C-19.4418 499.116 -19.5088 499.55 -19.4126 499.963C-19.3165 500.377 -19.0648 500.738 -18.7097 500.97C-18.3546 501.203 -17.9237 501.29 -17.5069 501.212C-17.09 501.135 -16.7194 500.899 -16.4722 500.555C98.5744 324.893 316.573 217.795 525.994 234.04C526.355 234.069 526.716 233.977 527.02 233.779Z" fill="#115701"/>
<path d="M576.607 233.671C576.911 233.466 577.138 233.165 577.251 232.816C577.365 232.467 577.358 232.089 577.233 231.744C577.107 231.398 576.87 231.105 576.558 230.909C576.247 230.714 575.88 230.629 575.514 230.666C569.499 231.335 562.742 230.079 554.691 226.914C551.458 225.618 548.221 224.104 545.104 222.649C541.631 221.028 538.037 219.348 534.381 217.93C520.444 212.705 505.41 211.121 490.702 213.327C475.994 215.534 462.097 221.458 450.324 230.54C450.071 230.739 449.882 231.009 449.781 231.315C449.679 231.622 449.671 231.951 449.755 232.263C449.839 232.575 450.014 232.855 450.256 233.069C450.498 233.283 450.797 233.421 451.117 233.466C459.171 234.601 467.179 239.063 474.993 243.334C483.609 248.071 492.47 252.992 501.781 253.799C511.423 254.65 520.969 251.581 529.411 248.863L552.797 241.365L576.21 233.863C576.349 233.815 576.483 233.751 576.607 233.671ZM457.816 229.205C479.751 214.801 508.622 211.504 533.2 220.994C536.748 222.373 540.298 224.027 543.716 225.628C546.877 227.109 550.153 228.639 553.458 229.984C557.544 231.666 561.802 232.893 566.155 233.641L551.779 238.242L528.367 245.744C520.226 248.332 511.029 251.325 502.047 250.536C493.422 249.789 484.848 245.052 476.556 240.474C469.693 236.708 462.586 232.759 455.302 230.994C456.12 230.332 456.96 229.767 457.816 229.205ZM481.72 257.749C482.012 257.556 482.235 257.276 482.357 256.948C482.478 256.621 482.493 256.262 482.397 255.926C482.302 255.589 482.102 255.291 481.826 255.076C481.551 254.86 481.214 254.738 480.864 254.726C466.724 254.361 449.101 253.87 437.646 248.267C434.959 246.883 432.383 245.293 429.94 243.512C427.255 241.562 424.418 239.834 421.454 238.344C414.286 234.931 403.834 233.371 393.421 234.114C395.99 232.376 398.358 230.359 400.482 228.099C402.677 225.618 404.666 222.962 406.428 220.156C408.035 217.6 409.837 215.173 411.817 212.895C420.358 203.454 436.536 196.484 449.529 190.888C449.884 190.739 450.176 190.47 450.352 190.128C450.529 189.785 450.58 189.392 450.497 189.015C450.413 188.638 450.201 188.303 449.895 188.067C449.59 187.831 449.212 187.709 448.827 187.723C438.759 188.131 428.355 188.552 418.082 190.431C409.929 191.91 398.516 195.007 390.336 201.247C383.161 206.731 380.151 213.339 377.251 219.738C376.422 221.661 375.58 223.482 374.579 225.353C372.509 229.414 369.647 233.018 366.162 235.954C362.676 238.889 358.637 241.095 354.284 242.443C353.918 242.563 353.606 242.808 353.402 243.134C353.198 243.461 353.115 243.849 353.168 244.231C353.221 244.613 353.406 244.965 353.69 245.225C353.975 245.485 354.342 245.637 354.727 245.654C362.395 245.816 370.025 244.571 377.241 241.982C385.037 242.301 392.496 245.264 398.394 250.385C399.981 251.755 401.473 253.188 402.965 254.621C408.039 259.478 413.295 264.505 422.044 266.908C431.955 269.678 443.718 268.31 451.825 266.654C462.07 264.586 471.886 261.132 481.378 257.794C481.494 257.792 481.608 257.777 481.72 257.749ZM436.159 251.243C445.866 256.008 459.382 257.266 471.849 257.765C465.066 260.143 458.139 262.09 451.109 263.594C440.165 265.79 430.098 265.907 422.851 263.883C414.938 261.662 410.18 257.162 405.213 252.345C403.671 250.876 402.122 249.398 400.506 248.005C393.965 242.318 385.666 239.06 377.012 238.782C376.812 238.775 376.614 238.808 376.427 238.877C372.194 240.371 367.822 241.437 363.375 242.057C369.368 238.445 374.233 233.231 377.423 227.001C378.415 225.095 379.295 223.166 380.179 221.221C383.04 214.93 385.749 208.974 392.257 203.983C398.236 199.423 407.549 195.831 418.601 193.799C425.685 192.594 432.838 191.839 440.018 191.537C428.653 196.614 416.569 202.798 409.324 210.795C407.233 213.191 405.33 215.745 403.632 218.434C401.963 221.096 400.078 223.616 397.996 225.968C394.197 229.825 389.754 232.99 384.868 235.32C384.522 235.501 384.252 235.8 384.106 236.163C383.961 236.526 383.949 236.929 384.074 237.3C384.198 237.671 384.45 237.986 384.785 238.189C385.12 238.391 385.516 238.467 385.902 238.404C397.951 236.255 411.611 237.46 419.9 241.405C422.703 242.819 425.387 244.46 427.924 246.31C430.506 248.181 433.227 249.851 436.063 251.306L436.159 251.243ZM247.391 403.087C256.556 397.069 264.91 389.942 273.11 382.959C273.376 382.73 273.562 382.422 273.641 382.08C273.719 381.737 273.686 381.379 273.547 381.056C273.407 380.734 273.169 380.464 272.865 380.287C272.562 380.109 272.21 380.034 271.861 380.071C250.507 382.429 223.915 385.36 201.791 375.541C196.316 372.957 191.02 370.01 185.937 366.719C180.542 363.205 174.896 360.093 169.046 357.407C151.782 349.98 129.587 350.616 112.729 358.625C121.081 344.097 124.247 325.653 120.894 309.878C119.41 303.611 117.473 297.46 115.098 291.474C112.872 285.842 111.026 280.067 109.571 274.189C104.296 250.563 112.064 226.133 118.94 204.619C119.042 204.287 119.037 203.931 118.924 203.601C118.812 203.272 118.598 202.986 118.313 202.786C118.029 202.585 117.688 202.48 117.341 202.485C116.993 202.49 116.656 202.605 116.378 202.814C104.874 211.871 92.9809 221.238 83.6275 233.005C76.2142 242.339 67.4583 257.133 67.8767 274.643C68.1917 289.794 75.3733 303.455 82.2765 316.693C84.3305 320.638 86.4569 324.715 88.3539 328.736C94.3976 341.587 99.9717 360.178 92.1615 375.867C92.0056 376.184 91.9561 376.544 92.0203 376.892C92.0845 377.24 92.259 377.558 92.5179 377.799C92.7767 378.041 93.1062 378.193 93.4577 378.232C93.8092 378.272 94.1639 378.197 94.4692 378.019C97.3411 376.271 100.019 374.221 102.456 371.906C118.271 369.434 133.878 378.005 144.222 385.688C147.79 388.335 151.367 391.225 154.823 394.015C166.476 403.377 178.455 413.088 193.206 416.416C210.284 420.27 226.512 414.592 237.119 409.157C240.666 407.308 244.111 405.272 247.439 403.055L247.391 403.087ZM266.921 383.907C257.19 392.144 247.019 400.34 235.585 406.193C221.286 413.529 206.476 416.002 193.899 413.176C179.869 409.981 168.188 400.556 156.864 391.421C153.379 388.609 149.773 385.696 146.154 383.013C135.174 374.865 118.511 365.775 101.378 368.712C101.055 368.769 100.756 368.917 100.516 369.14C99.4374 370.179 98.3395 371.148 97.2229 372.047C102.28 356.484 97.0066 339.419 91.2551 327.327C89.3394 323.236 87.2323 319.105 85.121 315.156C78.3976 302.255 71.4344 288.905 71.0954 274.556C70.7952 261.67 76.137 247.629 86.1403 235.05C94.1359 224.988 104.148 216.635 114.148 208.703C107.934 228.583 101.309 252.386 106.345 274.915C107.829 280.939 109.719 286.856 112.001 292.625C114.312 298.464 116.203 304.461 117.659 310.568C121.244 327.515 116.876 347.837 106.481 362.231C106.263 362.542 106.158 362.919 106.185 363.298C106.213 363.677 106.37 364.035 106.631 364.312C106.892 364.588 107.241 364.766 107.617 364.815C107.994 364.864 108.376 364.781 108.698 364.581C125.102 354.223 149.388 352.517 167.731 360.435C173.43 363.069 178.935 366.107 184.202 369.526C189.409 372.898 194.835 375.917 200.444 378.562C221.613 387.891 246.207 386.108 266.921 383.907ZM309.112 352.521C309.397 352.33 309.616 352.054 309.736 351.733C309.857 351.411 309.874 351.06 309.785 350.727C309.696 350.395 309.505 350.099 309.239 349.881C308.974 349.662 308.647 349.532 308.304 349.509C290.356 348.376 268.094 346.961 251.919 336.476C247.99 333.789 244.256 330.828 240.746 327.613C236.98 324.172 232.963 321.017 228.727 318.176C215.768 309.949 196.801 307.431 181.263 311.54C191.122 300.187 197.348 284.035 196.837 270.115C196.528 265.013 195.829 259.941 194.747 254.944C193.765 250.287 193.1 245.57 192.756 240.824C191.86 221.643 201.954 201.697 210.015 185.595C210.178 185.273 210.23 184.907 210.165 184.552C210.099 184.197 209.918 183.874 209.651 183.631C209.384 183.388 209.045 183.24 208.686 183.209C208.326 183.178 207.967 183.266 207.663 183.459C197.173 190.099 186.279 197.004 177.166 205.911C169.898 213.014 160.779 224.447 158.678 238.538C156.824 250.784 160.635 262.206 164.331 273.262C165.418 276.533 166.55 279.912 167.494 283.235C170.525 293.804 172.382 308.977 163.943 321.025C163.738 321.323 163.637 321.681 163.656 322.042C163.675 322.404 163.812 322.749 164.046 323.025C164.281 323.301 164.6 323.493 164.953 323.569C165.307 323.646 165.676 323.604 166.003 323.45C167.624 322.659 169.192 321.763 170.696 320.768C184.379 320.813 195.55 329.484 202.522 336.789C204.939 339.338 207.279 341.938 209.542 344.588C217.204 353.343 225.142 362.413 236.642 366.994C249.912 372.301 264.384 370.215 274.163 367.543C286.507 364.166 297.925 358.268 308.968 352.574L309.112 352.521ZM204.459 189.437C196.82 204.82 188.684 223.053 189.525 240.975C189.865 245.876 190.548 250.748 191.57 255.555C192.611 260.383 193.284 265.283 193.583 270.211C194.131 285.403 186.172 303.423 174.189 314.035C173.898 314.293 173.708 314.647 173.653 315.032C173.598 315.418 173.682 315.811 173.889 316.141C174.096 316.472 174.413 316.718 174.784 316.837C175.155 316.955 175.556 316.939 175.915 316.789C191.481 310.291 212.959 312.042 226.966 320.945C231.067 323.695 234.955 326.751 238.598 330.085C242.214 333.409 246.064 336.47 250.117 339.244C265.163 349.037 285.004 351.229 302.15 352.419C292.862 357.139 283.343 361.653 273.263 364.412C260.098 368.025 247.501 367.873 237.807 364.009C227.055 359.709 219.387 350.944 211.966 342.472C209.664 339.848 207.296 337.143 204.863 334.59C197.343 326.721 185.221 317.379 170.139 317.55C169.981 317.541 169.823 317.565 169.675 317.62C175.224 305.635 173.415 292.168 170.618 282.397C169.646 279.009 168.505 275.595 167.408 272.29C163.835 261.608 160.152 250.571 161.886 239.106C163.45 228.786 169.689 217.852 179.438 208.28C186.979 200.984 195.712 195.043 204.459 189.437ZM419.362 270.034C419.673 269.835 419.907 269.536 420.026 269.186C420.144 268.835 420.141 268.455 420.016 268.107C419.891 267.758 419.652 267.463 419.338 267.267C419.023 267.072 418.652 266.99 418.285 267.033C403.124 268.551 384.251 270.452 370.338 264.879C366.981 263.453 363.737 261.777 360.632 259.865C357.264 257.787 353.736 255.983 350.082 254.467C342.237 251.429 331.971 250.781 321.971 252.467C329.299 247.089 335.286 240.36 338.504 233.628C340.131 230.024 341.471 226.295 342.509 222.478C343.467 218.966 344.684 215.531 346.151 212.2C352.493 198.634 367.566 187.11 379.694 177.891C379.987 177.665 380.195 177.346 380.284 176.986C380.373 176.626 380.338 176.246 380.185 175.908C380.031 175.57 379.768 175.294 379.438 175.123C379.109 174.953 378.731 174.9 378.368 174.971C367.861 177.059 357.006 179.223 346.653 183.264C338.454 186.456 327.244 192.231 320.38 201.606C314.404 209.776 313.129 218.775 311.862 227.41C311.495 229.994 311.122 232.569 310.63 235.112C309.042 243.172 304.913 254.155 294.061 260.454C293.738 260.632 293.486 260.916 293.347 261.258C293.209 261.6 293.192 261.979 293.299 262.333C293.413 262.69 293.646 262.997 293.959 263.203C294.272 263.409 294.647 263.501 295.019 263.464C295.757 263.393 296.508 263.3 297.256 263.181C297.16 263.555 297.196 263.95 297.357 264.3C297.518 264.636 297.788 264.908 298.122 265.072C298.457 265.235 298.837 265.28 299.2 265.2C311.492 262.436 321.993 267.59 328.68 272.367C330.784 273.894 332.817 275.523 334.85 277.152C341.693 282.626 348.761 288.297 358.723 290.179C370.142 292.332 382.282 288.896 390.446 285.63C400.733 281.509 410.142 275.675 419.247 270.027L419.362 270.034ZM310.616 255.525C310.27 255.741 310.018 256.079 309.909 256.472C309.8 256.865 309.841 257.284 310.025 257.649C310.209 258.013 310.523 258.296 310.904 258.441C311.285 258.586 311.707 258.584 312.086 258.434C324.161 254.062 338.951 253.697 348.881 257.544C352.373 258.996 355.744 260.724 358.963 262.711C362.209 264.708 365.599 266.458 369.105 267.949C381.599 272.952 397.492 272.277 411.531 270.999C404.448 275.479 397.006 279.366 389.281 282.618C378.332 287.05 367.676 288.533 359.381 286.99C350.236 285.261 343.826 280.068 336.967 274.632C334.883 272.967 332.805 271.312 330.666 269.753C324.815 265.516 316.184 261.05 305.942 261.172L306.973 260.647C307.353 260.465 307.646 260.141 307.79 259.745C307.934 259.349 307.917 258.912 307.743 258.528C307.579 258.14 307.271 257.83 306.885 257.663C306.498 257.495 306.062 257.484 305.667 257.63C304.342 258.128 303.025 258.552 301.726 258.923C309.294 251.982 312.53 242.826 313.915 235.754C314.419 233.148 314.796 230.515 315.173 227.882C316.389 219.254 317.62 211.11 323.088 203.55C328.079 196.729 336.896 190.623 347.898 186.334C355.764 183.438 363.854 181.192 372.088 179.618C360.979 188.292 348.911 198.629 343.21 210.823C341.677 214.309 340.409 217.907 339.418 221.585C338.427 225.239 337.149 228.807 335.594 232.258C331.348 241.071 321.618 250.189 310.82 255.501L310.616 255.525ZM362.138 303.805C362.439 303.613 362.669 303.326 362.791 302.99C362.914 302.654 362.923 302.287 362.817 301.945C362.711 301.603 362.496 301.305 362.205 301.097C361.914 300.888 361.563 300.781 361.205 300.792C345.522 301.095 326.003 301.49 311.3 293.582C307.7 291.546 304.25 289.255 300.976 286.726C297.447 283.999 293.715 281.546 289.813 279.388C279.534 274.005 265.294 272.671 252.918 275.6C260.308 267.991 265.594 258.329 267.292 249.053C267.993 244.653 268.358 240.206 268.383 235.749C268.42 231.612 268.739 227.483 269.338 223.39C272.182 206.95 284.506 191.827 294.414 179.668C294.645 179.392 294.777 179.046 294.789 178.686C294.802 178.326 294.694 177.971 294.484 177.678C294.276 177.385 293.979 177.167 293.637 177.059C293.294 176.95 292.926 176.956 292.588 177.076C282.374 180.805 271.815 184.636 262.303 190.565C254.753 195.289 244.787 203.336 240.28 215.022C236.38 225.138 237.481 235.596 238.551 245.715C238.874 248.743 239.188 251.777 239.392 254.814C239.981 264.325 238.697 277.48 229.308 286.155C229.043 286.401 228.867 286.728 228.806 287.086C228.746 287.443 228.806 287.811 228.975 288.131C229.145 288.452 229.416 288.707 229.745 288.859C230.074 289.01 230.444 289.048 230.797 288.968C233.268 288.366 235.673 287.521 237.977 286.445C250.323 284.832 261.138 291.765 268.069 297.898L269.146 296.667L268.069 297.898C270.317 299.896 272.507 302.015 274.696 304.134C282.008 311.203 289.625 318.485 299.975 321.67C311.988 325.294 324.456 322.442 332.872 319.37C343.383 315.528 352.924 309.58 362.15 303.825L362.138 303.805ZM288.154 182.207C278.875 193.815 268.781 207.598 266.177 222.832C265.544 227.075 265.21 231.357 265.179 235.648C265.154 239.94 264.806 244.224 264.138 248.463C262.162 259.245 254.906 270.642 245.208 278.195C244.895 278.441 244.681 278.791 244.606 279.182C244.532 279.574 244.601 279.979 244.802 280.323C245.006 280.664 245.325 280.92 245.701 281.047C246.077 281.174 246.486 281.163 246.854 281.016C259.653 275.713 276.74 276.226 288.323 282.337C292.073 284.425 295.662 286.792 299.057 289.42C302.458 292.034 306.038 294.405 309.772 296.515C323.368 303.828 340.467 304.401 355.319 304.216C347.801 308.822 340.032 313.275 331.725 316.303C320.552 320.373 309.632 321.161 300.99 318.563C291.36 315.636 284.09 308.609 277.057 301.798C274.833 299.647 272.608 297.495 270.316 295.472C262.822 288.839 251.034 281.346 237.355 283.256C237.196 283.278 237.04 283.324 236.894 283.393L235.777 283.892C242.346 274.781 243.279 263.29 242.733 254.661C242.541 251.602 242.218 248.533 241.889 245.454C240.864 235.718 239.806 225.66 243.391 216.302C246.649 207.848 254.013 199.676 264.144 193.41C271.618 188.654 279.914 185.274 288.163 182.201L288.154 182.207Z" fill="#115701"/>
</g>
<defs>
<clipPath id="clip0">
<rect width="646.175" height="278.466" fill="white" transform="matrix(-0.835895 0.548889 0.548889 0.835895 425.135 0)"/>
</clipPath>
</defs>
</svg>
