<svg width="367" height="425" viewBox="0 0 367 425" fill="none" xmlns="http://www.w3.org/2000/svg">
<path d="M478.246 415.187C442.463 430.906 396.25 427.043 362.939 408.945C312.387 381.505 277.885 333.542 230.615 301.724C197.327 279.269 155.047 265.055 116.904 252.525C55.0914 232.316 -5.0799 193.357 0.337093 117.393C4.27059 61.93 47.0895 16.6614 100.315 3.74995C170.377 -13.2707 226.435 30.5608 272.895 76.4133C317.085 120.043 368.288 157.25 418.996 192.953C468.244 227.78 528.123 255.332 530.977 323.684C532.528 362.598 514.637 399.244 478.246 415.187Z" fill="#FBB03A"/>
<g style="mix-blend-mode:multiply" opacity="0.4">
<g style="mix-blend-mode:multiply" opacity="0.4">
<path d="M46.123 64.9838C61.4079 46.174 82.4401 32.8843 106.002 27.1477C164.443 12.9788 212.544 50.6802 255.947 93.5462C301.238 138.231 352.284 175.371 404.993 212.556C412.86 218.125 420.997 223.492 428.841 228.701C469.66 255.647 504.926 279.067 506.814 324.627C507.646 344.275 502.319 362.396 491.508 375.645C485.387 383.218 477.52 389.197 468.581 393.069C441.091 405.105 402.386 402.905 374.447 387.725C348.935 373.871 327.447 353.796 304.768 332.509C285.999 314.972 266.556 296.829 244.079 281.694C206.97 256.702 161.206 241.68 124.433 229.599C92.0887 218.978 67.1615 205.191 50.2587 188.619C30.816 169.488 22.3198 146.719 24.2978 119.01C25.824 99.169 33.4196 80.2769 46.0555 64.894L46.123 64.9838ZM27.2872 49.8045C11.5867 69.0123 2.17125 92.5746 0.314601 117.303C-5.10239 193.268 55.0689 232.137 116.881 252.436C155.092 264.965 197.304 279.224 230.593 301.634C277.795 333.452 312.365 381.415 362.916 408.855C396.227 426.953 442.44 430.771 478.223 415.097C490.718 409.699 501.717 401.354 510.276 390.779C524.976 372.568 531.944 348.564 530.888 323.639C528.033 255.287 468.154 227.735 418.906 192.908C368.288 157.16 317.085 119.998 272.805 76.3683C226.345 30.5158 170.287 -13.3157 100.226 3.70497C71.5126 10.7115 45.8863 26.9188 27.2647 49.8493L27.2872 49.8045Z" fill="#FBB03A"/>
</g>
</g>
<path d="M306.791 110.859C280.11 96.8247 248.867 91.7947 217.579 91.8396C186.291 91.8846 154.643 96.7573 123.175 101.72H122.455L103.058 86.967C101.555 85.8247 99.66 85.325 97.7888 85.5776C95.9176 85.8302 94.2232 86.8145 93.078 88.3142C92.506 89.0553 92.0869 89.9023 91.8449 90.8063C91.603 91.7102 91.5431 92.6532 91.6685 93.5805C91.7939 94.5078 92.1024 95.4011 92.5759 96.2085C93.0493 97.0159 93.6783 97.7213 94.4266 98.2841L112.408 112.049C112.976 112.911 113.401 113.859 113.667 114.856C120.028 145.506 126.479 176.269 137.47 205.034C148.462 233.798 164.241 260.766 187.033 280.347C226.233 314.029 281.436 322.696 333.943 330.241C322.705 309.291 299.216 300.579 275.907 295.369C252.598 290.16 227.604 286.657 209.487 271.792C195.731 260.564 187.392 243.633 181.48 226.298C175.569 208.963 171.681 190.708 165.027 173.709C157.797 155.168 147.128 138.156 133.582 123.568C134.738 123.092 135.747 122.317 136.504 121.323C137.54 119.952 138.043 118.253 137.92 116.54C156.852 124.092 177.032 128.037 197.417 128.171C215.961 128.306 234.707 125.432 253.318 124.781C271.929 124.129 290.922 125.836 306.543 134.526C327.087 145.933 339.203 167.669 352.397 187.25C365.591 206.83 382.156 225.423 406.072 228.342C380.381 182.669 352.734 135.043 306.791 110.859Z" fill="white"/>
</svg>
