<svg width="327" height="531" viewBox="0 0 327 531" fill="none" xmlns="http://www.w3.org/2000/svg">
<g clip-path="url(#clip0)">
<path d="M-170.978 306.165C-179.039 260.184 -173.283 212.845 -154.439 170.135C-135.596 127.425 -104.51 91.2616 -65.1131 66.2187C-25.7164 41.1758 20.2217 28.3779 66.8919 29.4433C113.562 30.5088 158.868 45.3899 197.081 72.2046C235.294 99.0194 264.697 136.563 281.572 180.089C298.447 223.615 302.036 271.167 291.885 316.732C281.734 362.298 258.3 403.83 224.545 436.076C190.79 468.323 148.23 489.836 102.249 497.894C40.6006 508.631 -22.7892 494.474 -74.012 458.53C-125.235 422.586 -160.107 367.79 -170.978 306.165ZM183.663 244.075C179.428 219.915 168.125 197.553 151.182 179.818C134.238 162.082 112.416 149.77 88.4752 144.436C64.534 139.103 39.5491 140.989 16.6799 149.856C-6.18935 158.723 -25.9156 174.172 -40.0045 194.25C-54.0933 214.328 -61.9119 238.133 -62.4715 262.654C-63.0311 287.176 -56.3065 311.313 -43.1482 332.012C-29.9899 352.712 -10.9888 369.045 11.4521 378.946C33.8931 388.847 58.766 391.87 82.9254 387.635C115.3 381.914 144.085 363.589 162.969 336.678C181.853 309.766 189.294 276.465 183.663 244.075Z" fill="#115701"/>
<path d="M151.643 249.671C148.672 232.434 152.645 214.723 162.693 200.406C172.742 186.09 188.049 176.333 205.269 173.269L249.596 165.501C266.828 162.529 284.536 166.498 298.852 176.541C313.168 186.584 322.927 201.884 325.998 219.099C328.969 236.339 324.997 254.054 314.949 268.375C304.901 282.696 289.594 292.458 272.371 295.529L227.989 303.381C210.749 306.334 193.04 302.342 178.734 292.278C164.429 282.214 154.688 266.895 151.643 249.671Z" fill="#FBB03A"/>
<path d="M45.6989 175.301C28.46 178.265 10.7484 174.29 -3.57051 164.244C-17.8894 154.197 -27.6532 138.894 -30.731 121.675L-38.4992 77.3487C-41.4708 60.1087 -37.4987 42.3934 -27.4507 28.0727C-17.4027 13.7519 -2.09556 3.98977 15.1269 0.918776C32.3741 -2.04398 50.0929 1.93868 64.4133 11.9969C78.7337 22.0551 88.492 37.3714 91.5569 54.6007L99.3252 98.9273C102.273 116.158 98.2902 133.855 88.245 148.161C78.1998 162.468 62.9066 172.223 45.6989 175.301Z" fill="#FBB03A"/>
<path d="M77.3011 355.615C94.532 352.65 112.236 356.617 126.554 366.652C140.871 376.688 150.64 391.977 153.731 409.185L161.499 453.512C164.471 470.752 160.499 488.467 150.451 502.788C140.403 517.109 125.096 526.871 107.873 529.942C90.634 532.906 72.9225 528.931 58.6036 518.884C44.2846 508.837 34.5209 493.535 31.4431 476.316L23.6748 431.989C20.727 414.759 24.7098 397.061 34.755 382.755C44.8002 368.449 60.0935 358.693 77.3011 355.615Z" fill="#FBB03A"/>
</g>
<defs>
<clipPath id="clip0">
<rect width="531" height="531" fill="white" transform="translate(-204)"/>
</clipPath>
</defs>
</svg>
