<svg width="22" height="13" viewBox="0 0 22 13" fill="none" xmlns="http://www.w3.org/2000/svg">
<path d="M20.8086 11.1153C20.8086 11.0323 20.7256 11.0323 20.7256 10.9493C20.3935 10.2851 19.6463 9.45486 18.65 8.54161C18.1519 8.1265 17.9028 7.7944 17.7368 7.62835C17.4877 7.29626 17.4877 7.0472 17.5707 6.71511C17.6537 6.46604 17.9858 6.05092 18.567 5.30371C18.8991 4.8886 19.0651 4.63953 19.3142 4.39047C20.5595 2.73001 21.1407 1.6507 20.9746 1.15256L20.8916 1.06955C20.8086 0.986525 20.7256 0.903505 20.5595 0.903505C20.3935 0.820482 20.1444 0.820482 19.8954 0.903505H16.7405C16.6575 0.903505 16.6575 0.903505 16.4914 0.903505C16.4084 0.903505 16.3254 0.903505 16.3254 0.903505H16.2423H16.1593L16.0763 0.98652C15.9933 1.06954 15.9933 1.06954 15.9933 1.15256C15.6612 2.06582 15.2461 2.81302 14.831 3.64325C14.5819 4.05837 14.3328 4.47349 14.0837 4.80558C13.8347 5.13767 13.6686 5.38674 13.5026 5.55278C13.3365 5.71883 13.1705 5.80185 13.0875 5.9679C13.0044 6.05092 12.8384 6.13395 12.8384 6.05092C12.7554 6.05092 12.6723 6.05092 12.6723 5.9679C12.5893 5.88487 12.5063 5.80185 12.4233 5.71882C12.3403 5.6358 12.3403 5.46976 12.2572 5.30371C12.2572 5.13766 12.2572 4.97162 12.2572 4.8886C12.2572 4.80557 12.2572 4.55651 12.2572 4.39047C12.2572 4.1414 12.2572 3.97535 12.2572 3.89232C12.2572 3.64325 12.2572 3.31117 12.2572 2.97908C12.2572 2.64699 12.2572 2.39791 12.2572 2.23186C12.2572 2.06582 12.2572 1.81675 12.2572 1.65071C12.2572 1.40164 12.2572 1.23559 12.2572 1.15256C12.2572 1.06954 12.1742 0.9035 12.1742 0.820477C12.0912 0.737454 12.0082 0.654428 11.9251 0.571406C11.8421 0.488383 11.6761 0.488385 11.5931 0.405362C11.1779 0.322339 10.6798 0.239319 10.0987 0.239319C8.77029 0.239319 7.85703 0.322344 7.52494 0.48839C7.3589 0.571413 7.19285 0.654431 7.10983 0.820477C6.94378 0.986523 6.94378 1.06955 7.0268 1.06955C7.44192 1.15257 7.77401 1.31861 7.94006 1.56768L8.02309 1.73373C8.10611 1.81676 8.10609 1.9828 8.18912 2.23186C8.27214 2.48093 8.27214 2.73 8.27214 3.06209C8.27214 3.56023 8.27214 4.05837 8.27214 4.39047C8.27214 4.80558 8.18912 5.05464 8.18912 5.30371C8.18912 5.55278 8.10611 5.71883 8.02309 5.80185C7.94006 5.9679 7.94005 6.05092 7.85703 6.05092C7.85703 6.05092 7.85702 6.13394 7.774 6.13394C7.69098 6.13394 7.60796 6.21697 7.44192 6.21697C7.35889 6.21697 7.19285 6.13395 7.10983 6.05092C6.94378 5.9679 6.77774 5.80186 6.69471 5.63581C6.52867 5.46976 6.36262 5.22069 6.19657 4.8886C6.03053 4.5565 5.78145 4.22442 5.6154 3.72628L5.44937 3.39419C5.36635 3.22815 5.2003 2.89605 5.03426 2.48094C4.86821 2.06582 4.70216 1.73373 4.53611 1.31862C4.45309 1.15257 4.37008 1.06954 4.28705 0.98652H4.20403C4.20403 0.98652 4.12099 0.903505 4.03797 0.903505C3.95495 0.903505 3.87193 0.820477 3.78891 0.820477H0.800081C0.467989 0.820477 0.301946 0.903497 0.218923 0.98652L0.135895 1.06955C0.135895 1.06955 0.135895 1.15257 0.135895 1.23559C0.135895 1.31861 0.1359 1.40163 0.218923 1.56768C0.634037 2.56395 1.13217 3.56023 1.63031 4.55651C2.12845 5.46976 2.62659 6.29999 2.95868 6.88115C3.3738 7.46231 3.70588 8.04347 4.121 8.54161C4.53611 9.03975 4.78518 9.37184 4.8682 9.53788C5.03425 9.70393 5.11726 9.78695 5.20029 9.86997L5.44937 10.119C5.61542 10.2851 5.86448 10.5342 6.19657 10.7832C6.52866 11.0323 6.94377 11.2814 7.35889 11.5304C7.774 11.7795 8.27215 11.9456 8.77029 12.1116C9.35145 12.2776 9.84958 12.3607 10.3477 12.2776H11.5931C11.8421 12.2776 12.0082 12.1946 12.1742 12.0286L12.2572 11.9455C12.2572 11.8625 12.3403 11.8625 12.3403 11.7795C12.3403 11.6965 12.3403 11.6135 12.3403 11.4474C12.3403 11.1153 12.3403 10.8663 12.4233 10.6172C12.5063 10.3681 12.5063 10.2021 12.5893 10.036C12.6724 9.86998 12.7554 9.78695 12.8384 9.70393C12.9214 9.6209 13.0045 9.53788 13.0045 9.53788H13.0875C13.2535 9.45486 13.5026 9.53788 13.6686 9.70393C13.9177 9.86997 14.1668 10.119 14.3328 10.3681C14.4989 10.6172 14.7479 10.8663 15.08 11.1983C15.4121 11.5304 15.6612 11.7795 15.8272 11.8625L16.0763 12.0286C16.2423 12.1116 16.4084 12.1946 16.6575 12.2776C16.9065 12.3607 17.0726 12.3607 17.2386 12.3607L20.0614 12.2776C20.3105 12.2776 20.5595 12.1946 20.7256 12.1116C20.8916 12.0286 20.9746 11.9455 20.9746 11.7795C20.9746 11.6965 20.9746 11.5304 20.9746 11.4474C20.8086 11.2814 20.8086 11.1983 20.8086 11.1153Z" fill="white"/>
</svg>
