<svg width="18" height="18" viewBox="0 0 18 18" fill="none" xmlns="http://www.w3.org/2000/svg">
<path d="M14.5832 0.0270996H2.42167C1.04859 0.0270996 0.00244141 1.07328 0.00244141 2.4464V14.6083C0.00244141 15.9814 1.04859 17.0276 2.42167 17.0276H14.5832C15.9563 17.0276 17.0024 15.9814 17.0024 14.6083V2.4464C17.0024 1.07328 15.9563 0.0270996 14.5832 0.0270996ZM8.50244 13.6275C11.314 13.6275 13.6024 11.4043 13.6024 8.7235C13.6024 8.2658 13.5371 7.74271 13.4063 7.35039H14.8447V14.2814C14.8447 14.6083 14.5832 14.9352 14.1909 14.9352H2.81398C2.48706 14.9352 2.16014 14.6737 2.16014 14.2814V7.285H3.66398C3.53321 7.7427 3.46783 8.20041 3.46783 8.65812C3.40244 11.4043 5.6909 13.6275 8.50244 13.6275ZM8.50244 11.6659C6.67167 11.6659 5.23321 10.2274 5.23321 8.46196C5.23321 6.69652 6.67167 5.25802 8.50244 5.25802C10.3332 5.25802 11.7717 6.69652 11.7717 8.46196C11.7717 10.2928 10.3332 11.6659 8.50244 11.6659ZM14.7794 4.66954C14.7794 5.06186 14.4524 5.38879 14.0601 5.38879H12.2294C11.8371 5.38879 11.5101 5.06186 11.5101 4.66954V2.9041C11.5101 2.51179 11.8371 2.18485 12.2294 2.18485H14.0601C14.4524 2.18485 14.7794 2.51179 14.7794 2.9041V4.66954Z" fill="white"/>
</svg>
