<svg width="17" height="16" viewBox="0 0 17 16" fill="none" xmlns="http://www.w3.org/2000/svg">
<path d="M16.9672 8.7699C16.8146 7.26461 16.1287 5.84548 15.0358 4.77392C14.1019 3.85824 12.9587 3.2698 11.7559 3.00815V2.18098C12.2472 2.06115 12.6124 1.62513 12.6124 1.10688C12.6124 0.496535 12.1059 0 11.4834 0H9.09278C8.47028 0 7.96386 0.496535 7.96386 1.10688C7.96386 1.6251 8.32903 2.06111 8.82028 2.18098V3.01046C7.62113 3.27322 6.48178 3.86084 5.55048 4.77396C5.34668 4.97378 5.15875 5.18341 4.98672 5.40127C4.97839 5.40065 4.97005 5.40003 4.96155 5.40003H2.59543C2.41208 5.40003 2.26339 5.54578 2.26339 5.72558C2.26339 5.90539 2.41208 6.05114 2.59543 6.05114H4.53492C4.29147 6.45075 4.09517 6.87043 3.94575 7.30244H0.332036C0.148686 7.30244 0 7.44819 0 7.62799C0 7.80779 0.148686 7.95354 0.332036 7.95354H3.75812C3.66243 8.3654 3.60751 8.78455 3.59333 9.20488H2.12503C1.94168 9.20488 1.793 9.35063 1.793 9.53043C1.793 9.71023 1.94168 9.85598 2.12503 9.85598H3.60392C3.63195 10.2774 3.70104 10.6966 3.81124 11.1073H1.66018C1.47683 11.1073 1.32815 11.2531 1.32815 11.4329C1.32815 11.6127 1.47683 11.7584 1.66018 11.7584H4.02315C4.34888 12.6033 4.85792 13.3951 5.55048 14.0742C6.64441 15.1467 8.09328 15.8194 9.63015 15.9683C9.84949 15.9895 10.069 16 10.2882 16C11.5839 16 12.8631 15.6324 13.9485 14.9393C14.1022 14.8412 14.1456 14.6395 14.0456 14.4888C13.9455 14.3382 13.7398 14.2956 13.5861 14.3937C11.2102 15.9107 8.02817 15.5827 6.02005 13.6138C3.66385 11.3036 3.66385 7.54462 6.02005 5.23439C8.37621 2.92422 12.21 2.92422 14.5662 5.23439C16.5717 7.20073 16.9081 10.3179 15.366 12.6464C15.2661 12.7972 15.3098 12.9988 15.4636 13.0967C15.6175 13.1946 15.8231 13.1518 15.9229 13.001C16.7468 11.7569 17.1177 10.2543 16.9672 8.7699ZM8.62793 1.10692C8.62793 0.855588 8.83645 0.65114 9.09278 0.65114H11.4834C11.7398 0.65114 11.9483 0.855588 11.9483 1.10692C11.9483 1.35824 11.7398 1.56269 11.4834 1.56269H9.09278C8.83645 1.56269 8.62793 1.35821 8.62793 1.10692ZM9.48435 2.89854V2.2138H11.0918V2.89737C10.5581 2.83512 10.018 2.83551 9.48435 2.89854Z" fill="#115701"/>
<path d="M14.8012 13.5182C14.7135 13.5182 14.6282 13.5531 14.5665 13.6136C14.5044 13.6742 14.4691 13.7582 14.4691 13.8438C14.4691 13.9294 14.5044 14.0134 14.5665 14.074C14.6282 14.1348 14.7136 14.1693 14.8012 14.1693C14.8885 14.1693 14.9738 14.1348 15.0359 14.074C15.0977 14.0134 15.1332 13.9294 15.1332 13.8438C15.1332 13.7582 15.0977 13.6742 15.0359 13.6136C14.9738 13.5531 14.8885 13.5182 14.8012 13.5182Z" fill="#115701"/>
<path d="M10.2932 4.37372C7.45299 4.37372 5.14231 6.63926 5.14231 9.42401C5.14231 12.2088 7.45299 14.4743 10.2932 14.4743C13.1333 14.4743 15.444 12.2088 15.444 9.42401C15.444 6.63926 13.1333 4.37372 10.2932 4.37372ZM10.2932 13.8232C7.81912 13.8232 5.80638 11.8497 5.80638 9.42401C5.80638 6.99831 7.81912 5.02483 10.2932 5.02483C12.7672 5.02483 14.7799 6.99831 14.7799 9.42401C14.7799 11.8497 12.7672 13.8232 10.2932 13.8232Z" fill="#115701"/>
<path d="M12.3935 6.90429L10.7489 8.51672C10.6114 8.45005 10.4567 8.41238 10.2932 8.41238C10.1296 8.41238 9.97493 8.45005 9.8374 8.51672L9.10138 7.79507C8.97169 7.66794 8.76151 7.66794 8.63178 7.79507C8.50212 7.9222 8.50212 8.12834 8.63178 8.25547L9.36781 8.97712C9.29977 9.11197 9.26139 9.26364 9.26139 9.42398C9.26139 9.98178 9.72421 10.4356 10.2932 10.4356C10.8621 10.4356 11.3249 9.98178 11.3249 9.42398C11.3249 9.26364 11.2865 9.11197 11.2185 8.97712L12.8631 7.36469C12.9927 7.23756 12.9927 7.03142 12.8631 6.90429C12.7334 6.77716 12.5232 6.77716 12.3935 6.90429ZM10.2932 9.78453C10.0904 9.78453 9.92546 9.62279 9.92546 9.42401C9.92546 9.22523 10.0904 9.06349 10.2932 9.06349C10.4959 9.06349 10.6609 9.22523 10.6609 9.42401C10.6609 9.62279 10.4959 9.78453 10.2932 9.78453Z" fill="#115701"/>
<path d="M13.8432 9.10243H13.5356C13.3523 9.10243 13.2036 9.24818 13.2036 9.42798C13.2036 9.60778 13.3523 9.75353 13.5356 9.75353H13.8432C14.0266 9.75353 14.1753 9.60778 14.1753 9.42798C14.1753 9.24818 14.0266 9.10243 13.8432 9.10243Z" fill="#115701"/>
<path d="M7.05065 9.09449H6.74305C6.55971 9.09449 6.41102 9.24023 6.41102 9.42003C6.41102 9.59983 6.55971 9.74558 6.74305 9.74558H7.05065C7.23399 9.74558 7.38268 9.59983 7.38268 9.42003C7.38268 9.24023 7.23399 9.09449 7.05065 9.09449Z" fill="#115701"/>
<path d="M10.2972 6.57035C10.4805 6.57035 10.6292 6.4246 10.6292 6.2448V5.94322C10.6292 5.76341 10.4805 5.61767 10.2972 5.61767C10.1139 5.61767 9.96517 5.76341 9.96517 5.94322V6.2448C9.96517 6.4246 10.1139 6.57035 10.2972 6.57035Z" fill="#115701"/>
<path d="M10.2891 12.2777C10.1058 12.2777 9.95707 12.4234 9.95707 12.6032V12.9048C9.95707 13.0846 10.1058 13.2303 10.2891 13.2303C10.4724 13.2303 10.6211 13.0846 10.6211 12.9048V12.6032C10.6211 12.4234 10.4724 12.2777 10.2891 12.2777Z" fill="#115701"/>
<path d="M0.332031 11.1072C0.244707 11.1072 0.159043 11.142 0.0972852 11.2026C0.0355274 11.2631 7.50301e-08 11.3471 7.50301e-08 11.4327C7.50301e-08 11.5187 0.0354942 11.6024 0.0972852 11.6629C0.159076 11.7235 0.244707 11.7583 0.332031 11.7583C0.419355 11.7583 0.505019 11.7235 0.566744 11.6629C0.628502 11.6024 0.664062 11.5184 0.664062 11.4327C0.664062 11.3471 0.628535 11.2631 0.566744 11.2026C0.505019 11.142 0.419355 11.1072 0.332031 11.1072Z" fill="#115701"/>
</svg>
