<svg width="40" height="41" viewBox="0 0 40 41" fill="none" xmlns="http://www.w3.org/2000/svg">
<ellipse cx="20" cy="20.0271" rx="20" ry="20.0002" fill="url(#paint0_linear)"/>
<path d="M26.5808 12.0271H14.4192C13.0462 12.0271 12 13.0733 12 14.4464V26.6083C12 27.9814 13.0462 29.0276 14.4192 29.0276H26.5808C27.9538 29.0276 29 27.9814 29 26.6083V14.4464C29 13.0733 27.9538 12.0271 26.5808 12.0271ZM20.5 25.6275C23.3115 25.6275 25.6 23.4043 25.6 20.7235C25.6 20.2658 25.5346 19.7427 25.4038 19.3504H26.8423V26.2814C26.8423 26.6083 26.5808 26.9352 26.1885 26.9352H14.8115C14.4846 26.9352 14.1577 26.6737 14.1577 26.2814V19.285H15.6615C15.5308 19.7427 15.4654 20.2004 15.4654 20.6581C15.4 23.4043 17.6885 25.6275 20.5 25.6275ZM20.5 23.6659C18.6692 23.6659 17.2308 22.2274 17.2308 20.462C17.2308 18.6965 18.6692 17.258 20.5 17.258C22.3308 17.258 23.7692 18.6965 23.7692 20.462C23.7692 22.2928 22.3308 23.6659 20.5 23.6659ZM26.7769 16.6695C26.7769 17.0619 26.45 17.3888 26.0577 17.3888H24.2269C23.8346 17.3888 23.5077 17.0619 23.5077 16.6695V14.9041C23.5077 14.5118 23.8346 14.1849 24.2269 14.1849H26.0577C26.45 14.1849 26.7769 14.5118 26.7769 14.9041V16.6695Z" fill="white"/>
<defs>
<linearGradient id="paint0_linear" x1="8.5" y1="35.5273" x2="35.0003" y2="8.02728" gradientUnits="userSpaceOnUse">
<stop stop-color="#EEA054"/>
<stop offset="0.502762" stop-color="#D64763"/>
<stop offset="1" stop-color="#B62A99"/>
</linearGradient>
</defs>
</svg>
