<svg width="1007" height="1454" viewBox="0 0 1007 1454" fill="none" xmlns="http://www.w3.org/2000/svg">
<g clip-path="url(#clip0)">
<path d="M3.48024 733.045C-31.1646 677.987 -51.0827 614.95 -54.3641 549.981C-57.4071 488.744 -45.7936 412.075 -6.71501 362.475C-6.71501 362.475 -100.851 395.868 -161.994 444.997C-253.531 518.622 -284.924 661.849 -260.635 772.446C-253.53 804.723 -240.52 835.408 -222.26 862.955C-193.688 905.803 -144.662 953.693 -91.6895 961.61C-102.033 960.066 -113.673 995.817 -116.393 1002.71C-149.32 1085.5 -75.1356 1188.32 -14.071 1236.3C24.9149 1266.81 71.5178 1286.06 120.675 1291.95C168.521 1297.97 217.317 1308.67 263.168 1287.27C316.955 1262.11 338.534 1240.59 338.801 1240.35C332.466 1246.7 313.516 1237.9 307.703 1234.64C294.459 1227.19 281.883 1218.62 270.113 1209.01C225.917 1173.15 194.647 1122.2 162.032 1076.18C157.85 1071.11 154.889 1065.15 153.376 1058.75C152.685 1055.54 153.097 1052.2 154.546 1049.25C155.994 1046.3 158.394 1043.93 161.357 1042.52C170.115 1039.41 178.27 1047.97 183.563 1055.55C213.373 1097.44 245.445 1137.67 279.637 1176.06C306.74 1206.28 335.24 1245.23 380.705 1230.9C426.171 1216.58 511.333 1171.03 537.25 1110.51C513.25 1135.17 474.965 1136.32 445.335 1122.85C414.751 1108.86 385.779 1085.61 358.817 1065.61C335.936 1048.68 314.501 1030.21 292.496 1012.31C280.109 1002.75 268.908 991.746 259.129 979.531C250.848 968.623 237.623 944.293 262.469 952.489C311.469 966.434 353.615 995.124 394.408 1024.79C442.857 1059.97 508.611 1102.71 556.611 1070.9C604.611 1039.09 634.694 986.5 653.273 950.777C671.853 915.055 663.641 906.368 663.641 906.368C627.93 906.234 594.121 912.511 558.803 916.233C516.787 920.732 473.865 922.076 432.061 915.685C394.953 909.77 339.544 898.868 337.933 852.097C336.825 818.822 375.157 831.396 414.198 844.895C469.507 864.063 526.601 885.357 585.967 889.946C614.971 892.187 647.968 891.508 675.799 881.516C706.419 870.344 719.49 836.857 729.189 808.259C730.961 803.062 732.669 797.862 734.475 792.636C742.358 769.453 753.573 741.538 751.413 716.542C749.957 700.173 747.995 717.624 724.571 738.093C701.147 758.562 599.89 775.435 549.307 769.042C498.723 762.649 473.047 710.83 546.234 717.691C619.42 724.551 697.643 712.226 736.266 692.013C774.888 671.799 781.453 645.47 778.966 613.674C778.627 609.409 744.454 477.737 770.659 445.154C770.659 445.154 740.501 448.999 711.638 422.583C682.774 396.168 632.566 343.206 564.674 325.224C521.714 313.857 462.686 387.062 435.753 444.104C396.757 527.176 371.392 583.954 348.735 624.716C326.078 665.478 296.504 648.658 320.21 575.753C343.916 502.848 368.146 419.132 430.374 367.526C492.603 315.92 529.907 304.223 529.907 304.223C529.907 304.223 500.706 300.355 459.087 292.896C417.467 285.437 369.445 257.568 324.496 281.051C279.547 304.533 250.869 380.877 236.601 435.818C226.706 473.85 224.136 514.151 218.701 552.933C212.599 596.402 209.038 646.188 186.987 685.145C183.976 690.946 179.863 696.105 174.879 700.334C160.656 711.287 143.833 705.334 143.242 687.046C140.892 615.388 152.141 543.676 168.813 474.255C176.753 441.281 184.224 408.188 201.203 378.59C218.207 348.882 242.484 323.983 271.753 306.234C272.966 305.507 274.178 304.78 275.386 304.117C314.186 281.822 296.197 275.171 266.277 275.194C204.815 275.372 136.949 281.414 81.9755 311.483C28.4407 340.743 -3.59319 394.845 -14.1591 453.981C-26.8218 525.458 -16.0073 604.074 5.62216 672.628C11.6299 691.818 18.7555 710.64 26.9628 728.997C30.1909 736.081 32.6454 746.325 25.8161 750.106C18.9868 753.886 11.923 746.815 7.73224 740.534L3.48024 733.045Z" fill="#115701" fill-opacity="0.05"/>
<path d="M710.516 477.637L710.755 477.903C711.281 478.558 711.672 479.311 711.905 480.118C712.139 480.925 712.21 481.771 712.115 482.606C712.019 483.44 711.759 484.248 711.35 484.982C710.94 485.716 710.389 486.361 709.728 486.88C598.506 575.757 484.002 667.277 363.265 748.095C408.636 782.866 461.334 806.842 517.357 818.2C573.38 829.558 631.254 828 686.585 813.645C687.396 813.421 688.244 813.361 689.078 813.468C689.913 813.574 690.718 813.845 691.447 814.265C692.176 814.685 692.814 815.246 693.325 815.914C693.836 816.583 694.208 817.346 694.422 818.159C694.849 819.797 694.615 821.536 693.77 823.003C692.926 824.469 691.538 825.544 689.908 825.996C631.965 841.024 571.338 842.49 512.736 830.28C454.135 818.071 399.138 792.514 352.019 755.597C336.783 765.735 321.401 775.664 305.871 785.384C278.526 802.576 251.52 818.783 224.853 834.005C317.921 930.703 439.752 994.73 572.178 1016.54C573.02 1016.66 573.828 1016.95 574.556 1017.39C575.284 1017.83 575.917 1018.41 576.418 1019.1C576.92 1019.78 577.28 1020.56 577.477 1021.39C577.674 1022.22 577.704 1023.07 577.565 1023.91C577.427 1024.75 577.124 1025.55 576.672 1026.27C576.22 1026.99 575.629 1027.62 574.934 1028.11C574.239 1028.6 573.453 1028.94 572.622 1029.12C571.792 1029.31 570.934 1029.32 570.098 1029.17C433.832 1006.65 308.61 940.36 213.385 840.322C184.148 856.566 155.219 871.612 126.597 885.46C191.994 1008.02 289.754 1110.29 409.238 1181.14C410.603 1182.05 411.57 1183.44 411.941 1185.03C412.311 1186.63 412.056 1188.3 411.228 1189.72C410.4 1191.13 409.062 1192.17 407.49 1192.62C405.918 1193.08 404.231 1192.92 402.776 1192.17C281.151 1120.01 181.651 1015.86 115.104 891.079C64.7677 915.043 13.0319 935.949 -39.8215 953.685C-21.2133 1024.85 14.3184 1090.47 63.7481 1144.95C113.178 1199.43 175.041 1241.16 244.071 1266.58C244.883 1266.85 245.634 1267.28 246.278 1267.84C246.922 1268.41 247.446 1269.09 247.82 1269.86C248.193 1270.63 248.409 1271.47 248.453 1272.33C248.498 1273.18 248.37 1274.03 248.079 1274.84C247.787 1275.64 247.337 1276.38 246.755 1277.01C246.173 1277.64 245.471 1278.14 244.691 1278.49C243.91 1278.84 243.067 1279.04 242.212 1279.06C241.356 1279.08 240.505 1278.92 239.709 1278.61C168.865 1252.51 105.359 1209.72 54.5791 1153.85C3.79935 1097.98 -32.7564 1030.69 -51.9871 957.683C-86.0501 968.636 -119.97 977.939 -153.748 985.59C-155.344 985.824 -156.97 985.447 -158.3 984.534C-159.63 983.622 -160.566 982.24 -160.921 980.667C-161.276 979.093 -161.024 977.444 -160.215 976.048C-159.406 974.653 -158.1 973.614 -156.558 973.14C-126.807 966.496 -97.0349 958.489 -67.2415 949.121C-111.637 880.509 -141.276 803.413 -154.275 722.731C-167.274 642.049 -163.349 559.546 -142.751 480.462C-142.23 478.921 -141.143 477.637 -139.709 476.869C-138.276 476.101 -136.605 475.907 -135.034 476.328C-133.463 476.748 -132.111 477.75 -131.252 479.131C-130.394 480.512 -130.093 482.168 -130.411 483.763C-150.704 561.657 -154.456 642.938 -141.424 722.37C-128.393 801.802 -98.867 877.624 -54.7496 944.951C19.1424 920.782 90.9236 890.582 159.869 854.656C119.773 773.086 79.0354 688.724 66.9473 596.221C52.9834 489.829 83.8451 391.388 149.425 332.928C150.689 331.795 152.351 331.21 154.046 331.302C155.74 331.394 157.329 332.156 158.463 333.419C159.462 334.683 159.951 336.275 159.835 337.882C159.718 339.489 159.004 340.994 157.833 342.1C95.3177 397.811 65.9834 492.057 79.3822 594.266C91.2078 684.6 131.401 767.886 171.163 848.614C183.563 842.061 196.048 835.292 208.619 828.305C208.907 827.805 209.274 827.354 209.705 826.97C210.882 825.817 212.466 825.175 214.113 825.181C239.091 811.114 264.305 796.194 289.756 780.42C226.999 625.93 262.793 432.646 377.321 309.181C377.889 308.563 378.574 308.065 379.336 307.714C380.098 307.363 380.922 307.166 381.76 307.135C382.599 307.104 383.435 307.239 384.221 307.533C385.007 307.827 385.727 308.273 386.34 308.847C387.576 310.001 388.304 311.597 388.367 313.287C388.43 314.977 387.821 316.623 386.674 317.866C275.915 437.289 240.994 623.838 300.838 773.606C349.469 743.034 397.071 710.378 443.851 676.537C457.354 572.996 500.703 475.624 568.608 396.303C569.157 395.668 569.826 395.148 570.576 394.773C571.326 394.398 572.143 394.175 572.98 394.118C573.817 394.06 574.658 394.169 575.452 394.437C576.247 394.706 576.981 395.13 577.611 395.683C578.873 396.802 579.649 398.367 579.777 400.048C579.904 401.729 579.373 403.393 578.294 404.689C514.665 478.961 473.048 569.531 458.136 666.188C541.667 605.154 622.677 540.37 701.927 477.043C703.18 476.066 704.75 475.586 706.335 475.696C707.92 475.805 709.409 476.496 710.516 477.637Z" fill="white"/>
</g>
<defs>
<clipPath id="clip0">
<rect width="975.697" height="1117.08" fill="white" transform="translate(174.474 1453.21) rotate(-131.89)"/>
</clipPath>
</defs>
</svg>
