<svg width="1077" height="1454" viewBox="0 0 1077 1454" fill="none" xmlns="http://www.w3.org/2000/svg">
<g clip-path="url(#clip0)">
<path d="M1002.58 733.045C1037.22 677.987 1057.14 614.95 1060.42 549.981C1063.47 488.744 1051.85 412.075 1012.77 362.475C1012.77 362.475 1106.91 395.868 1168.05 444.997C1259.59 518.622 1290.98 661.849 1266.69 772.446C1259.59 804.723 1246.58 835.408 1228.32 862.955C1199.75 905.803 1150.72 953.693 1097.75 961.61C1108.09 960.066 1119.73 995.817 1122.45 1002.71C1155.38 1085.5 1081.19 1188.32 1020.13 1236.3C981.144 1266.81 934.541 1286.06 885.385 1291.95C837.538 1297.97 788.742 1308.67 742.892 1287.27C689.104 1262.11 667.525 1240.59 667.258 1240.35C673.593 1246.7 692.543 1237.9 698.356 1234.64C711.6 1227.19 724.176 1218.62 735.946 1209.01C780.142 1173.15 811.412 1122.2 844.028 1076.18C848.209 1071.11 851.17 1065.15 852.684 1058.75C853.374 1055.54 852.962 1052.2 851.514 1049.25C850.065 1046.3 847.665 1043.93 844.702 1042.52C835.945 1039.41 827.789 1047.97 822.496 1055.55C792.686 1097.44 760.614 1137.67 726.422 1176.06C699.319 1206.28 670.82 1245.23 625.354 1230.9C579.888 1216.58 494.726 1171.03 468.809 1110.51C492.809 1135.17 531.094 1136.32 560.724 1122.85C591.308 1108.86 620.28 1085.61 647.242 1065.61C670.123 1048.68 691.558 1030.21 713.563 1012.31C725.95 1002.75 737.151 991.746 746.93 979.531C755.211 968.623 768.436 944.293 743.59 952.489C694.59 966.434 652.444 995.124 611.651 1024.79C563.202 1059.97 497.448 1102.71 449.448 1070.9C401.448 1039.09 371.366 986.5 352.786 950.777C334.206 915.055 342.418 906.368 342.418 906.368C378.129 906.234 411.938 912.511 447.256 916.233C489.272 920.732 532.194 922.076 573.998 915.685C611.106 909.77 666.515 898.868 668.126 852.097C669.234 818.822 630.902 831.396 591.861 844.895C536.553 864.063 479.458 885.357 420.093 889.946C391.089 892.187 358.091 891.508 330.26 881.516C299.64 870.344 286.569 836.857 276.87 808.259C275.098 803.062 273.39 797.862 271.585 792.636C263.701 769.453 252.486 741.538 254.646 716.542C256.102 700.173 258.064 717.624 281.488 738.093C304.912 758.562 406.169 775.435 456.752 769.042C507.336 762.649 533.012 710.83 459.825 717.691C386.639 724.551 308.416 712.226 269.793 692.013C231.171 671.799 224.606 645.47 227.093 613.674C227.432 609.409 261.605 477.737 235.4 445.154C235.4 445.154 265.558 448.999 294.422 422.583C323.285 396.168 373.493 343.206 441.385 325.224C484.345 313.857 543.373 387.062 570.306 444.104C609.302 527.176 634.667 583.954 657.324 624.716C679.981 665.478 709.556 648.658 685.849 575.753C662.143 502.848 637.913 419.132 575.685 367.526C513.456 315.92 476.152 304.223 476.152 304.223C476.152 304.223 505.353 300.355 546.973 292.896C588.592 285.437 636.614 257.568 681.563 281.051C726.512 304.533 755.191 380.877 769.459 435.818C779.353 473.85 781.923 514.151 787.358 552.933C793.46 596.402 797.021 646.188 819.072 685.145C822.083 690.946 826.196 696.105 831.18 700.334C845.404 711.287 862.226 705.334 862.817 687.046C865.167 615.388 853.918 543.676 837.247 474.255C829.307 441.281 821.835 408.188 804.856 378.59C787.852 348.882 763.575 323.983 734.306 306.234C733.094 305.507 731.882 304.78 730.673 304.117C691.874 281.822 709.862 275.171 739.782 275.194C801.244 275.372 869.11 281.414 924.084 311.483C977.618 340.743 1009.65 394.845 1020.22 453.981C1032.88 525.458 1022.07 604.074 1000.44 672.628C994.429 691.818 987.304 710.64 979.096 728.997C975.868 736.081 973.414 746.325 980.243 750.106C987.072 753.886 994.136 746.815 998.327 740.534L1002.58 733.045Z" fill="#115701" fill-opacity="0.05"/>
<path d="M295.543 477.637L295.304 477.903C294.778 478.558 294.387 479.311 294.154 480.118C293.92 480.925 293.849 481.771 293.945 482.606C294.04 483.44 294.3 484.248 294.71 484.982C295.119 485.716 295.67 486.361 296.331 486.88C407.553 575.757 522.057 667.277 642.794 748.095C597.423 782.866 544.725 806.842 488.702 818.2C432.679 829.558 374.805 828 319.474 813.645C318.663 813.421 317.815 813.361 316.981 813.468C316.146 813.574 315.341 813.845 314.612 814.265C313.883 814.685 313.245 815.246 312.734 815.914C312.223 816.583 311.851 817.346 311.637 818.159C311.21 819.797 311.444 821.536 312.289 823.003C313.133 824.469 314.521 825.544 316.151 825.996C374.094 841.024 434.721 842.49 493.323 830.28C551.924 818.071 606.921 792.514 654.04 755.597C669.276 765.735 684.658 775.664 700.188 785.384C727.533 802.576 754.539 818.783 781.206 834.005C688.138 930.703 566.307 994.73 433.881 1016.54C433.04 1016.66 432.231 1016.95 431.503 1017.39C430.775 1017.83 430.143 1018.41 429.641 1019.1C429.14 1019.78 428.78 1020.56 428.583 1021.39C428.386 1022.22 428.355 1023.07 428.494 1023.91C428.632 1024.75 428.936 1025.55 429.387 1026.27C429.839 1026.99 430.43 1027.62 431.125 1028.11C431.821 1028.6 432.606 1028.94 433.437 1029.12C434.267 1029.31 435.125 1029.32 435.961 1029.17C572.227 1006.65 697.449 940.36 792.674 840.322C821.911 856.566 850.841 871.612 879.462 885.46C814.065 1008.02 716.305 1110.29 596.821 1181.14C595.456 1182.05 594.489 1183.44 594.119 1185.03C593.749 1186.63 594.003 1188.3 594.831 1189.72C595.659 1191.13 596.997 1192.17 598.569 1192.62C600.141 1193.08 601.828 1192.92 603.283 1192.17C724.908 1120.01 824.408 1015.86 890.955 891.079C941.291 915.043 993.027 935.949 1045.88 953.685C1027.27 1024.85 991.741 1090.47 942.311 1144.95C892.881 1199.43 831.018 1241.16 761.988 1266.58C761.176 1266.85 760.425 1267.28 759.781 1267.84C759.137 1268.41 758.613 1269.09 758.239 1269.86C757.866 1270.63 757.65 1271.47 757.606 1272.33C757.561 1273.18 757.689 1274.03 757.98 1274.84C758.272 1275.64 758.722 1276.38 759.304 1277.01C759.886 1277.64 760.588 1278.14 761.368 1278.49C762.149 1278.84 762.992 1279.04 763.847 1279.06C764.703 1279.08 765.554 1278.92 766.35 1278.61C837.194 1252.51 900.7 1209.72 951.48 1153.85C1002.26 1097.98 1038.82 1030.69 1058.05 957.683C1092.11 968.636 1126.03 977.939 1159.81 985.59C1161.4 985.824 1163.03 985.447 1164.36 984.534C1165.69 983.622 1166.63 982.24 1166.98 980.667C1167.34 979.093 1167.08 977.444 1166.27 976.048C1165.47 974.653 1164.16 973.614 1162.62 973.14C1132.87 966.496 1103.09 958.489 1073.3 949.121C1117.7 880.509 1147.33 803.413 1160.33 722.731C1173.33 642.049 1169.41 559.546 1148.81 480.462C1148.29 478.921 1147.2 477.637 1145.77 476.869C1144.34 476.101 1142.66 475.907 1141.09 476.328C1139.52 476.748 1138.17 477.75 1137.31 479.131C1136.45 480.512 1136.15 482.168 1136.47 483.763C1156.76 561.657 1160.51 642.938 1147.48 722.37C1134.45 801.802 1104.93 877.624 1060.81 944.951C986.917 920.782 915.135 890.582 846.19 854.656C886.286 773.086 927.024 688.724 939.112 596.221C953.076 489.829 922.214 391.388 856.634 332.928C855.37 331.795 853.708 331.21 852.014 331.302C850.319 331.394 848.73 332.156 847.596 333.419C846.597 334.683 846.108 336.275 846.224 337.882C846.341 339.489 847.055 340.994 848.227 342.1C910.741 397.811 940.076 492.057 926.677 594.266C914.851 684.6 874.658 767.886 834.896 848.614C822.496 842.061 810.011 835.292 797.441 828.305C797.152 827.805 796.785 827.354 796.354 826.97C795.177 825.817 793.593 825.175 791.946 825.181C766.968 811.114 741.754 796.194 716.303 780.42C779.06 625.93 743.267 432.646 628.738 309.181C628.17 308.563 627.485 308.065 626.723 307.714C625.961 307.363 625.137 307.166 624.299 307.135C623.46 307.104 622.624 307.239 621.838 307.533C621.052 307.827 620.332 308.273 619.719 308.847C618.483 310.001 617.755 311.597 617.692 313.287C617.63 314.977 618.238 316.623 619.386 317.866C730.144 437.289 765.065 623.838 705.221 773.606C656.591 743.034 608.988 710.378 562.208 676.537C548.706 572.996 505.356 475.624 437.451 396.303C436.902 395.668 436.234 395.148 435.483 394.773C434.733 394.398 433.916 394.175 433.079 394.118C432.242 394.06 431.402 394.169 430.607 394.437C429.812 394.706 429.078 395.13 428.448 395.683C427.187 396.802 426.41 398.367 426.282 400.048C426.155 401.729 426.686 403.393 427.765 404.689C491.394 478.961 533.011 569.531 547.923 666.188C464.392 605.154 383.382 540.37 304.132 477.043C302.879 476.066 301.309 475.586 299.724 475.696C298.139 475.805 296.65 476.496 295.543 477.637Z" fill="white"/>
</g>
<defs>
<clipPath id="clip0">
<rect width="975.697" height="1117.08" fill="white" transform="matrix(0.667701 -0.74443 -0.74443 -0.667701 831.585 1453.21)"/>
</clipPath>
</defs>
</svg>
